<svg xmlns="http://www.w3.org/2000/svg" xmlns:xlink="http://www.w3.org/1999/xlink" viewBox="0 0 378 398"><defs><style>.a,.c,.e,.j{fill:#fff;}.b,.f,.g,.i{fill:#1f2023;}.b,.f,.g{font-size:17px;}.b,.e,.f,.g,.i,.j{font-family:SegoeUI, Segoe UI;}.b{opacity:0.399;}.c{stroke:rgba(112,112,112,0.4);}.d{fill:#1bbf0d;}.e{font-size:18px;}.f{opacity:0.996;}.g{opacity:0.84;}.h{fill:#eb6262;}.i{font-size:15px;opacity:0.7;}.j{font-size:20px;}.k{stroke:none;}.l{fill:none;}.m{filter:url(#i);}.n{filter:url(#g);}.o{filter:url(#e);}.p{filter:url(#c);}.q{filter:url(#a);}</style><filter id="a" x="0" y="0" width="378" height="398" filterUnits="userSpaceOnUse"><feOffset dy="2" input="SourceAlpha"/><feGaussianBlur stdDeviation="5" result="b"/><feFlood flood-opacity="0.071"/><feComposite operator="in" in2="b"/><feComposite in="SourceGraphic"/></filter><filter id="c" x="256" y="151" width="87.721" height="50" filterUnits="userSpaceOnUse"><feOffset dy="2" input="SourceAlpha"/><feGaussianBlur stdDeviation="2" result="d"/><feFlood flood-opacity="0.161"/><feComposite operator="in" in2="d"/><feComposite in="SourceGraphic"/></filter><filter id="e" x="304" y="223" width="33" height="33" filterUnits="userSpaceOnUse"><feOffset dy="2" input="SourceAlpha"/><feGaussianBlur stdDeviation="2" result="f"/><feFlood flood-opacity="0.161"/><feComposite operator="in" in2="f"/><feComposite in="SourceGraphic"/></filter><filter id="g" x="304" y="265" width="33" height="33" filterUnits="userSpaceOnUse"><feOffset dy="2" input="SourceAlpha"/><feGaussianBlur stdDeviation="2" result="h"/><feFlood flood-opacity="0.161"/><feComposite operator="in" in2="h"/><feComposite in="SourceGraphic"/></filter><filter id="i" x="31" y="308" width="100.521" height="63" filterUnits="userSpaceOnUse"><feOffset dy="3" input="SourceAlpha"/><feGaussianBlur stdDeviation="3" result="j"/><feFlood flood-opacity="0.2"/><feComposite operator="in" in2="j"/><feComposite in="SourceGraphic"/></filter></defs><g transform="translate(-3627 -1472)"><g class="q" transform="matrix(1, 0, 0, 1, 3627, 1472)"><rect class="a" width="348" height="368" rx="20" transform="translate(15 13)"/></g><text class="b" transform="translate(3666 1520)"><tspan x="0" y="0">Address</tspan></text><g transform="translate(482 492)"><g class="c" transform="translate(3183 1039)"><rect class="k" width="299.736" height="50" rx="10"/><rect class="l" x="0.5" y="0.5" width="298.736" height="49" rx="9.5"/></g><text class="b" transform="translate(3198 1070)"><tspan x="0" y="0">0x…</tspan></text></g><text class="b" transform="translate(3667 1610)"><tspan x="0" y="0">Ammount</tspan></text><g transform="translate(82 582)"><g class="c" transform="translate(3584 1039)"><rect class="k" width="197.872" height="50" rx="10"/><rect class="l" x="0.5" y="0.5" width="196.872" height="49" rx="9.5"/></g><text class="b" transform="translate(3599 1070)"><tspan x="0" y="0">0.0</tspan></text></g><g transform="translate(3040 1278)"><g class="p" transform="matrix(1, 0, 0, 1, 587, 194)"><rect class="d" width="75.721" height="38" rx="10" transform="translate(262 155)"/></g><text class="e" transform="translate(862.486 373)"><tspan x="0" y="0">Add</tspan></text><g transform="translate(899 361.998)"><g transform="translate(0 0.002)"><path class="a" d="M11.343,5.065H6.937V.667A.663.663,0,0,0,6.282,0H5.719a.664.664,0,0,0-.656.665v4.4H.656A.656.656,0,0,0,0,5.719v.567a.654.654,0,0,0,.656.653H5.063v4.414A.65.65,0,0,0,5.719,12h.564a.65.65,0,0,0,.655-.649V6.939h4.405A.655.655,0,0,0,12,6.286V5.719A.656.656,0,0,0,11.343,5.065Z" transform="translate(0 -0.002)"/></g></g></g><text class="f" transform="translate(3667 1716)"><tspan x="0" y="0">0x9E8E76EF165213EF…</tspan></text><text class="f" transform="translate(3667 1757)"><tspan x="0" y="0">0x9E8E76EF165213EF…</tspan></text><text class="g" transform="translate(3873 1716)"><tspan x="0" y="0">1.0</tspan></text><text class="g" transform="translate(3873 1757)"><tspan x="0" y="0">1.0</tspan></text><g transform="translate(3057 1263)"><g class="o" transform="matrix(1, 0, 0, 1, 570, 209)"><rect class="h" width="21" height="21" rx="8" transform="translate(310 227)"/></g><g transform="translate(885.584 446.768) rotate(-45)"><g transform="translate(0 0)"><path class="a" d="M6.29,2.82h0L3.847,2.811,3.838.371A.371.371,0,0,0,3.473,0H3.16A.365.365,0,0,0,2.8.367l.009,2.439L.363,2.8A.36.36,0,0,0,0,3.16v.315a.366.366,0,0,0,.365.364l2.444.009L2.82,6.295a.364.364,0,0,0,.365.361H3.5A.357.357,0,0,0,3.86,6.3L3.851,3.851l2.444.009A.36.36,0,0,0,6.657,3.5V3.184A.367.367,0,0,0,6.29,2.82Z"/></g></g></g><g transform="translate(3057 1305)"><g class="n" transform="matrix(1, 0, 0, 1, 570, 167)"><rect class="h" width="21" height="21" rx="8" transform="translate(310 269)"/></g><g transform="translate(885.584 446.768) rotate(-45)"><g transform="translate(0 0)"><path class="a" d="M6.29,2.82h0L3.847,2.811,3.838.371A.371.371,0,0,0,3.473,0H3.16A.365.365,0,0,0,2.8.367l.009,2.439L.363,2.8A.36.36,0,0,0,0,3.16v.315a.366.366,0,0,0,.365.364l2.444.009L2.82,6.295a.364.364,0,0,0,.365.361H3.5A.357.357,0,0,0,3.86,6.3L3.851,3.851l2.444.009A.36.36,0,0,0,6.657,3.5V3.184A.367.367,0,0,0,6.29,2.82Z"/></g></g></g><text class="i" transform="translate(3766 1812)"><tspan x="0" y="0">24 Addresses</tspan></text><g transform="translate(3376 1541)"><g class="m" transform="matrix(1, 0, 0, 1, 251, -69)"><rect class="d" width="82.521" height="45" rx="10" transform="translate(40 314)"/></g><text class="j" transform="translate(312 272)"><tspan x="0" y="0">Send</tspan></text></g></g></svg>