<?xml version="1.0" encoding="UTF-8"?>
<svg width="138px" height="28px" viewBox="0 0 138 28" version="1.1" xmlns="http://www.w3.org/2000/svg" xmlns:xlink="http://www.w3.org/1999/xlink">
    <!-- Generator: Sketch 52.5 (67469) - http://www.bohemiancoding.com/sketch -->
    <title>Group</title>
    <desc>Created with Sketch.</desc>
    <defs>
        <path d="M54.1264648,5.25292969 L54.1264648,21 L51.7460938,21 L51.7460938,11.246582 L47.2539062,21 L45.7524414,21 L41.2480469,11.246582 L41.2480469,21 L38.8798828,21 L38.8798828,5.25292969 L40.8696289,5.25292969 L46.4970703,17.3745117 L52.1245117,5.25292969 L54.1264648,5.25292969 Z M62,21.1220703 C61.3652312,21.1220703 60.7772651,21.0020357 60.236084,20.7619629 C59.6949029,20.5218901 59.2188334,20.1882346 58.8078613,19.7609863 C58.3968892,19.3337381 58.0754406,18.8210479 57.8435059,18.2229004 C57.6115711,17.6247529 57.4956055,16.9676143 57.4956055,16.2514648 L57.4956055,9.74511719 L59.7416992,9.74511719 L59.7416992,16.2514648 C59.7416992,16.6339537 59.8129062,16.9920231 59.9553223,17.3256836 C60.0977383,17.6593441 60.2889799,17.9502755 60.5290527,18.1984863 C60.7691255,18.4466972 61.04785,18.6420078 61.3652344,18.7844238 C61.6826188,18.9268399 62.0162743,18.9980469 62.3662109,18.9980469 C62.7324237,18.9980469 63.0823551,18.9268399 63.4160156,18.7844238 C63.7496761,18.6420078 64.042642,18.4466972 64.2949219,18.1984863 C64.5472018,17.9502755 64.7486158,17.6593441 64.8991699,17.3256836 C65.0497241,16.9920231 65.125,16.6339537 65.125,16.2514648 L65.125,9.74511719 L67.3710938,9.74511719 L67.3710938,21 L65.7475586,21 L65.2470703,19.8769531 C65.0273427,20.1129569 64.7669286,20.3204744 64.4658203,20.4995117 C64.1972643,20.6622729 63.8615743,20.8067214 63.4587402,20.9328613 C63.0559062,21.0590013 62.5696643,21.1220703 62,21.1220703 Z M72.7299805,21 L70.4838867,21 L70.4838867,5.25292969 L72.7299805,5.25292969 L72.7299805,21 Z M79.1020508,17.2524414 C79.1020508,17.7488632 79.2688785,18.1638981 79.6025391,18.4975586 C79.9361996,18.8312191 80.3512345,18.9980469 80.8476562,18.9980469 C80.9290369,18.9980469 81.0165197,18.9939779 81.1101074,18.9858398 C81.2036951,18.9777018 81.291178,18.9654949 81.3725586,18.9492188 C81.4539392,18.9329426 81.5312496,18.9085288 81.6044922,18.8759766 L81.6044922,20.8779297 C81.5068354,20.9267581 81.3888353,20.9674478 81.2504883,21 C80.9982084,21.0813806 80.7011736,21.1220703 80.359375,21.1220703 C79.8629532,21.1220703 79.4011252,21.0305185 78.973877,20.8474121 C78.5466287,20.6643057 78.174318,20.4059261 77.8569336,20.0722656 C77.5395492,19.7386051 77.2933765,19.3357771 77.1184082,18.8637695 C76.9434399,18.391762 76.855957,17.854658 76.855957,17.2524414 L76.855957,11.8691406 L74.8540039,11.8691406 L74.8540039,9.74511719 L75.7329102,9.74511719 C76.1642274,9.74511719 76.5222968,9.60473773 76.8071289,9.32397461 C77.0919611,9.04321149 77.234375,8.68717664 77.234375,8.25585938 L77.234375,6.75439453 L79.1020508,6.75439453 L79.1020508,9.74511719 L81.6044922,9.74511719 L81.6044922,11.8691406 L79.1020508,11.8691406 L79.1020508,17.2524414 Z M86.4750977,21 L84.2290039,21 L84.2290039,9.74511719 L86.4750977,9.74511719 L86.4750977,21 Z M85.3520508,7.99951172 C84.9695619,7.99951172 84.6440443,7.8672702 84.3754883,7.6027832 C84.1069323,7.3382962 83.9726562,7.01074414 83.9726562,6.62011719 C83.9726562,6.2376283 84.1069323,5.9141452 84.3754883,5.6496582 C84.6440443,5.3851712 84.9695619,5.25292969 85.3520508,5.25292969 C85.7345397,5.25292969 86.0600573,5.3851712 86.3286133,5.6496582 C86.5971693,5.9141452 86.7314453,6.2376283 86.7314453,6.62011719 C86.7314453,7.00260608 86.5971693,7.32812366 86.3286133,7.59667969 C86.0600573,7.86523572 85.7345397,7.99951172 85.3520508,7.99951172 Z M88.9775391,9.50097656 C88.9775391,8.93131226 89.1016426,8.38403583 89.3498535,7.85913086 C89.5980644,7.33422589 89.9561337,6.86832886 90.4240723,6.46142578 C90.8920108,6.05452271 91.4474252,5.73103961 92.090332,5.4909668 C92.7332389,5.25089398 93.4453086,5.13085938 94.2265625,5.13085938 C94.9752642,5.13085938 95.66292,5.25496295 96.2895508,5.50317383 C96.9161815,5.7513847 97.4573545,6.09724713 97.9130859,6.54077148 C98.3688174,6.98429584 98.7228177,7.50105499 98.9750977,8.09106445 C99.2273776,8.68107391 99.3535156,9.31786768 99.3535156,10.0014648 L96.9731445,10.0014648 C96.9731445,9.18765869 96.7188339,8.52645111 96.2102051,8.01782227 C95.7015762,7.50919342 95.0403687,7.25488281 94.2265625,7.25488281 C93.7952452,7.25488281 93.4005552,7.31591736 93.0424805,7.43798828 C92.6844058,7.5600592 92.379233,7.73095593 92.1269531,7.95068359 C91.8746732,8.17041125 91.6813972,8.41251495 91.5471191,8.67700195 C91.4128411,8.94148895 91.3457031,9.21614441 91.3457031,9.50097656 C91.3457031,10.0543647 91.5552551,10.4795721 91.9743652,10.7766113 C92.3934754,11.0736506 92.9102346,11.3299957 93.5246582,11.5456543 C94.1390818,11.7613129 94.8104619,11.9749338 95.5388184,12.1865234 C96.2671749,12.398113 96.9385549,12.6829409 97.5529785,13.0410156 C98.1674022,13.3990903 98.6841613,13.8690563 99.1032715,14.4509277 C99.5223817,15.0327991 99.7319336,15.7997999 99.7319336,16.7519531 C99.7319336,17.3216174 99.6017266,17.8668594 99.3413086,18.3876953 C99.0808906,18.9085313 98.7126489,19.3744283 98.2365723,19.7854004 C97.7604957,20.1963725 97.1847365,20.5218901 96.5092773,20.7619629 C95.8338182,21.0020357 95.0729209,21.1220703 94.2265625,21.1220703 C93.3802041,21.1220703 92.6274447,21.0020357 91.9682617,20.7619629 C91.3090787,20.5218901 90.7455264,20.1882346 90.2775879,19.7609863 C89.8096494,19.3337381 89.455649,18.8210479 89.2155762,18.2229004 C88.9755034,17.6247529 88.8554688,16.9676143 88.8554688,16.2514648 L91.2236328,16.2514648 C91.2236328,17.1385135 91.4738745,17.8180315 91.9743652,18.2900391 C92.474856,18.7620466 93.2255809,18.9980469 94.2265625,18.9980469 C95.2926486,18.9980469 96.0799942,18.7823915 96.588623,18.3510742 C97.0972519,17.919757 97.3515625,17.3867219 97.3515625,16.7519531 C97.3515625,16.1660127 97.144045,15.7062191 96.7290039,15.3725586 C96.3139628,15.0388981 95.7972036,14.7601736 95.1787109,14.536377 C94.5602183,14.3125803 93.8888383,14.0928559 93.1645508,13.8771973 C92.4402633,13.6615386 91.7688833,13.3828142 91.1503906,13.0410156 C90.5318979,12.699217 90.0151388,12.2536649 89.6000977,11.7043457 C89.1850565,11.1550266 88.9775391,10.4205775 88.9775391,9.50097656 Z M111.731445,17.7529297 C111.54427,18.2167992 111.30827,18.652179 111.023438,19.059082 C110.738605,19.4659851 110.396812,19.8240544 109.998047,20.1333008 C109.599282,20.4425471 109.137454,20.6846508 108.612549,20.8596191 C108.087644,21.0345875 107.499678,21.1220703 106.848633,21.1220703 C106.099931,21.1220703 105.400068,20.9816909 104.749023,20.7009277 C104.097979,20.4201646 103.528323,20.0254745 103.040039,19.5168457 C102.551755,19.0082169 102.169272,18.4039749 101.892578,17.7041016 C101.615884,17.0042283 101.477539,16.2270551 101.477539,15.3725586 C101.477539,14.5262002 101.615884,13.7530959 101.892578,13.0532227 C102.169272,12.3533494 102.543617,11.7491074 103.015625,11.2404785 C103.487633,10.7318497 104.045081,10.3351251 104.687988,10.050293 C105.330895,9.76546082 106.010413,9.62304688 106.726562,9.62304688 C107.442712,9.62304688 108.12223,9.76546082 108.765137,10.050293 C109.408044,10.3351251 109.965492,10.7318497 110.4375,11.2404785 C110.909508,11.7491074 111.283853,12.3533494 111.560547,13.0532227 C111.837241,13.7530959 111.975586,14.5262002 111.975586,15.3725586 C111.975586,15.5027676 111.967448,15.6309401 111.951172,15.7570801 C111.934896,15.88322 111.91862,15.9910477 111.902344,16.0805664 C111.886068,16.1944993 111.869792,16.2921545 111.853516,16.3735352 L103.845703,16.3735352 C103.878255,16.7234718 103.97998,17.0571273 104.150879,17.3745117 C104.321778,17.6918961 104.535399,17.9706205 104.791748,18.2106934 C105.048097,18.4507662 105.355304,18.6420078 105.713379,18.7844238 C106.071454,18.9268399 106.449868,18.9980469 106.848633,18.9980469 C107.53223,18.9980469 108.075437,18.851564 108.478271,18.5585938 C108.881106,18.2656235 109.172037,17.9970715 109.351074,17.7529297 L111.731445,17.7529297 Z M106.726562,11.7470703 C105.977861,11.7470703 105.345136,12.0013809 104.828369,12.5100098 C104.311602,13.0186386 103.98405,13.6839152 103.845703,14.5058594 L109.851562,14.5058594 C109.721354,13.6920532 109.389732,13.0288112 108.856689,12.5161133 C108.323646,12.0034154 107.613611,11.7470703 106.726562,11.7470703 Z M119.714844,9.62304688 C120.333336,9.62304688 120.917234,9.74511597 121.466553,9.98925781 C122.015872,10.2333997 122.493976,10.5670552 122.900879,10.9902344 C123.307782,11.4134136 123.629231,11.9240693 123.865234,12.5222168 C124.101238,13.1203643 124.219238,13.7815719 124.219238,14.5058594 L124.219238,21 L121.973145,21 L121.973145,14.5058594 C121.973145,14.1396466 121.901938,13.7897152 121.759521,13.4560547 C121.617105,13.1223942 121.423829,12.8294283 121.179688,12.5771484 C120.935546,12.3248685 120.654787,12.1234545 120.337402,11.9729004 C120.020018,11.8223463 119.686362,11.7470703 119.336426,11.7470703 C118.953937,11.7470703 118.595868,11.8223463 118.262207,11.9729004 C117.928547,12.1234545 117.637615,12.3248685 117.389404,12.5771484 C117.141193,12.8294283 116.945883,13.1203597 116.803467,13.4499512 C116.661051,13.7795427 116.589844,14.1315085 116.589844,14.5058594 L116.589844,21 L114.34375,21 L114.34375,9.74511719 L115.967285,9.74511719 L116.467773,10.8803711 C116.687501,10.6443673 116.943846,10.4327809 117.236816,10.2456055 C117.505372,10.0991204 117.843097,9.95874091 118.25,9.82446289 C118.656903,9.69018488 119.145179,9.62304688 119.714844,9.62304688 Z M131.836426,21.1220703 C131.087724,21.1220703 130.387861,20.9816909 129.736816,20.7009277 C129.085771,20.4201646 128.514081,20.0254745 128.021729,19.5168457 C127.529376,19.0082169 127.146893,18.4039749 126.874268,17.7041016 C126.601643,17.0042283 126.465332,16.2270551 126.465332,15.3725586 C126.465332,14.5262002 126.601643,13.7530959 126.874268,13.0532227 C127.146893,12.3533494 127.529376,11.7491074 128.021729,11.2404785 C128.514081,10.7318497 129.085771,10.3351251 129.736816,10.050293 C130.387861,9.76546082 131.087724,9.62304688 131.836426,9.62304688 C132.373538,9.62304688 132.833331,9.69018488 133.21582,9.82446289 C133.598309,9.95874091 133.923827,10.0991204 134.192383,10.2456055 C134.493491,10.4327809 134.749836,10.6443673 134.961426,10.8803711 L134.961426,5.25292969 L137.20752,5.25292969 L137.20752,21 L135.583984,21 L135.083496,19.8769531 C134.863768,20.1129569 134.607423,20.3204744 134.314453,20.4995117 C134.045897,20.6622729 133.708173,20.8067214 133.30127,20.9328613 C132.894366,21.0590013 132.40609,21.1220703 131.836426,21.1220703 Z M131.958496,11.7470703 C131.527179,11.7470703 131.116213,11.8345532 130.725586,12.0095215 C130.334959,12.1844898 129.989097,12.4347314 129.687988,12.7602539 C129.38688,13.0857764 129.148845,13.470294 128.973877,13.9138184 C128.798909,14.3573427 128.711426,14.8435846 128.711426,15.3725586 C128.711426,15.9096707 128.798909,16.397947 128.973877,16.8374023 C129.148845,17.2768577 129.38688,17.6593408 129.687988,17.9848633 C129.989097,18.3103857 130.334959,18.5606274 130.725586,18.7355957 C131.116213,18.910564 131.527179,18.9980469 131.958496,18.9980469 C132.389813,18.9980469 132.802814,18.910564 133.19751,18.7355957 C133.592206,18.5606274 133.938068,18.3103857 134.235107,17.9848633 C134.532147,17.6593408 134.768147,17.2768577 134.943115,16.8374023 C135.118084,16.397947 135.205566,15.9096707 135.205566,15.3725586 C135.205566,14.8354465 135.118084,14.3471702 134.943115,13.9077148 C134.768147,13.4682595 134.532147,13.0857764 134.235107,12.7602539 C133.938068,12.4347314 133.592206,12.1844898 133.19751,12.0095215 C132.802814,11.8345532 132.389813,11.7470703 131.958496,11.7470703 Z" id="path-1"></path>
    </defs>
    <g id="Page-1" stroke="none" stroke-width="1" fill="none" fill-rule="evenodd">
        <g id="Group">
            <g id="MultiSend">
                <use fill="#000000" xlink:href="#path-1"></use>
                <use fill="#1F2023" xlink:href="#path-1"></use>
            </g>
            <g id="Group_4" fill="#1BBF0D">
                <rect id="Rectangle_2" opacity="0.396" x="0" y="0" width="21" height="21" rx="7"></rect>
                <rect id="Rectangle_3" x="7" y="7" width="21" height="21" rx="7"></rect>
            </g>
        </g>
    </g>
</svg>