<svg xmlns="http://www.w3.org/2000/svg" viewBox="0 0 80.587 74.811"><defs><style>.a{fill:#e17726;stroke:#e17726;}.a,.b,.c,.d,.e,.f,.g,.h,.i,.j{stroke-linecap:round;stroke-linejoin:round;}.b{fill:#e27625;stroke:#e27625;}.c{fill:#d5bfb2;stroke:#d5bfb2;}.d{fill:#233447;stroke:#233447;}.e{fill:#cc6228;stroke:#cc6228;}.f{fill:#e27525;stroke:#e27525;}.g{fill:#f5841f;stroke:#f5841f;}.h{fill:#c0ac9d;stroke:#c0ac9d;}.i{fill:#161616;stroke:#161616;}.j{fill:#763e1a;stroke:#763e1a;}</style></defs><g transform="translate(-172.536 -116.05)"><path class="a" d="M413.729,116.55l-31.1,23.072,5.776-13.612Z" transform="translate(-165.04)"/><path class="b" d="M250.55,116.55l30.816,23.29-5.493-13.83Z" transform="translate(-73.58)"/><path class="b" d="M428.773,290.46,420.5,303.137l17.7,4.868,5.059-17.266Z" transform="translate(-191.263 -120.425)"/><path class="b" d="M239.89,290.74l5.028,17.266,17.7-4.868-8.242-12.677Z" transform="translate(-66.199 -120.425)"/><path class="b" d="M299.543,196.837,294.61,204.3l17.549.781-.594-18.893Z" transform="translate(-104.09 -48.223)"/><path class="b" d="M395.246,196.346l-12.21-10.866-.406,19.111,17.549-.781Z" transform="translate(-165.04 -47.731)"/><path class="b" d="M313.8,304.051l10.586-5.154-9.119-7.117Z" transform="translate(-117.378 -121.339)"/><path class="b" d="M386.08,298.9l10.586,5.154L395.2,291.78Z" transform="translate(-167.429 -121.339)"/><path class="c" d="M396.666,320.074,386.08,314.92l.843,6.9-.092,2.9Z" transform="translate(-167.429 -137.362)"/><path class="c" d="M313.8,320.074l9.835,4.65-.062-2.9.812-6.9Z" transform="translate(-117.378 -137.362)"/><path class="d" d="M326.565,264.721l-8.805-2.59,6.212-2.842Z" transform="translate(-120.12 -98.841)"/><path class="d" d="M387.91,264.721l2.593-5.431,6.243,2.842Z" transform="translate(-168.696 -98.841)"/><path class="e" d="M295.242,303.137l1.529-12.677-9.771.28Z" transform="translate(-98.82 -120.425)"/><path class="e" d="M415.53,290.46l1.529,12.677,8.273-12.4Z" transform="translate(-187.821 -120.425)"/><path class="e" d="M400.179,245.08l-17.549.781,1.624,9.02,2.593-5.431,6.243,2.842Z" transform="translate(-165.04 -89.001)"/><path class="e" d="M301.73,252.292l6.212-2.842,2.593,5.431,1.624-9.02-17.549-.781Z" transform="translate(-104.09 -89.001)"/><path class="f" d="M294.61,245.08l7.369,14.362-.249-7.15Z" transform="translate(-104.09 -89.001)"/><path class="f" d="M416.01,252.292l-.28,7.15L423.1,245.08Z" transform="translate(-187.96 -89.001)"/><path class="f" d="M348.014,247.62l-1.624,9.02,2.061,10.647.437-14.018Z" transform="translate(-139.945 -90.76)"/><path class="f" d="M380.733,247.62l-.843,5.619.406,14.049,2.061-10.647Z" transform="translate(-163.142 -90.76)"/><path class="g" d="M383.271,271.12l-2.061,10.647,1.5,1.03,9.119-7.117.28-7.15Z" transform="translate(-164.056 -105.239)"/><path class="g" d="M317.76,268.53l.249,7.15,9.119,7.117,1.5-1.03-2.061-10.647Z" transform="translate(-120.12 -105.239)"/><path class="h" d="M336.78,336.33l.092-2.9-.778-.686H324.321l-.747.686.062,2.9-9.835-4.65,3.435,2.808,6.994,4.841h11.957l6.994-4.841,3.435-2.808Z" transform="translate(-117.378 -148.968)"/><path class="i" d="M358.036,312.6l-1.5-1.03H347.89l-1.5,1.03-.812,6.9.747-.686H358.1l.778.686Z" transform="translate(-139.384 -135.042)"/><path class="j" d="M417.428,141.123l2.623-12.739-3.934-11.834L386.08,138.844l11.554,9.771,16.328,4.779,3.592-4.216-1.562-1.123,2.5-2.282-1.9-1.5,2.5-1.9Z" transform="translate(-167.429)"/><path class="j" d="M237.76,128.384l2.654,12.739-1.685,1.249,2.5,1.9-1.9,1.5,2.5,2.282-1.562,1.123,3.592,4.216,16.328-4.779,11.555-9.771L241.694,116.55Z" transform="translate(-64.724)"/><path class="g" d="M434.493,225.589l-16.328-4.779,4.933,7.464-7.369,14.362,9.74-.126h14.488Z" transform="translate(-187.96 -72.195)"/><path class="g" d="M261.652,220.81l-16.328,4.779L239.89,242.51h14.488l9.709.126-7.369-14.362Z" transform="translate(-66.199 -72.195)"/><path class="g" d="M348.187,178.16l1.061-18.016,4.715-12.834H332.89l4.715,12.834,1.061,18.016.406,5.68.031,13.987h8.648l.031-13.987Z" transform="translate(-130.597 -21.3)"/></g></svg>