<?xml version="1.0" encoding="UTF-8"?>
<svg width="30px" height="14px" viewBox="0 0 30 14" version="1.1" xmlns="http://www.w3.org/2000/svg" xmlns:xlink="http://www.w3.org/1999/xlink">
    <!-- Generator: Sketch 52.5 (67469) - http://www.bohemiancoding.com/sketch -->
    <title>beta</title>
    <desc>Created with Sketch.</desc>
    <defs>
        <path d="M8.4,6.65 C8.5866676,6.7366671 8.7533326,6.8499993 8.9,6.99 C9.0266673,7.1100006 9.14166615,7.269999 9.245,7.47 C9.34833385,7.670001 9.4,7.9133319 9.4,8.2 C9.4,8.4400012 9.3500005,8.66833225 9.25,8.885 C9.1499995,9.10166775 9.00833425,9.29166585 8.825,9.455 C8.64166575,9.61833415 8.42500125,9.7499995 8.175,9.85 C7.92499875,9.9500005 7.6500015,10 7.35,10 L4.65,10 L4.65,3.7 L7.25,3.7 C7.5233347,3.7 7.7766655,3.7466662 8.01,3.84 C8.2433345,3.9333338 8.44499915,4.0599992 8.615,4.22 C8.78500085,4.3800008 8.9166662,4.56499895 9.01,4.775 C9.1033338,4.98500105 9.15,5.2099988 9.15,5.45 C9.15,5.6633344 9.1100004,5.8466659 9.03,6 C8.9499996,6.1533341 8.8633338,6.2766662 8.77,6.37 C8.6566661,6.4833339 8.533334,6.5766663 8.4,6.65 Z M5.85,6.25 L7.15,6.25 C7.3766678,6.25 7.5666659,6.17500075 7.72,6.025 C7.8733341,5.87499925 7.95,5.700001 7.95,5.5 C7.95,5.299999 7.8733341,5.12500075 7.72,4.975 C7.5666659,4.82499925 7.3766678,4.75 7.15,4.75 L5.85,4.75 L5.85,6.25 Z M7.25,8.95 C7.5300014,8.95 7.75833245,8.8633342 7.935,8.69 C8.11166755,8.5166658 8.2,8.3033346 8.2,8.05 C8.2,7.7966654 8.11166755,7.5833342 7.935,7.41 C7.75833245,7.2366658 7.5300014,7.15 7.25,7.15 L5.85,7.15 L5.85,8.95 L7.25,8.95 Z M14.8,8.85 L14.8,10 L10.35,10 L10.35,3.7 L14.7,3.7 L14.7,4.85 L11.55,4.85 L11.55,6.2 L14.45,6.2 L14.45,7.35 L11.55,7.35 L11.55,8.85 L14.8,8.85 Z M15.3,3.7 L20.2,3.7 L20.2,4.85 L18.35,4.85 L18.35,10 L17.15,10 L17.15,4.85 L15.3,4.85 L15.3,3.7 Z M21.15,10 L19.9,10 L22.25,3.7 L23.35,3.7 L25.7,10 L24.45,10 L24,8.7 L21.6,8.7 L21.15,10 Z M23.6,7.6 L22.8,5.3 L22,7.6 L23.6,7.6 Z" id="path-1"></path>
    </defs>
    <g id="Page-1" stroke="none" stroke-width="1" fill="none" fill-rule="evenodd">
        <g id="beta">
            <rect id="Rectangle_13" fill="#6E6E6E" x="0" y="0" width="30" height="14" rx="5"></rect>
            <g id="BETA">
                <use fill="#000000" xlink:href="#path-1"></use>
                <use fill="#FFFFFF" xlink:href="#path-1"></use>
            </g>
        </g>
    </g>
</svg>