<?xml version="1.0" encoding="iso-8859-1"?>
<!-- Generator: Adobe Illustrator 19.0.0, SVG Export Plug-In . SVG Version: 6.00 Build 0)  -->
<svg version="1.1" id="Layer_1" xmlns="http://www.w3.org/2000/svg" xmlns:xlink="http://www.w3.org/1999/xlink" x="0px" y="0px"
	 viewBox="0 0 385.624 385.624" style="enable-background:new 0 0 385.624 385.624;" xml:space="preserve">
<g>
	<g>
		<path d="M357.508,70.436l-0.072-0.812h-22.464c-15.44,0-29.536,14.128-29.536,29.564v151.128L64.052,8.172
			C58.788,2.904,52.136,0,44.64,0c-7.5,0-14.34,2.904-19.604,8.172L8.356,24.944C-2.564,35.86-2.52,52.664,8.404,63.584
			l243.052,242.04H98.524c-15.432,0-29.088,14.484-29.088,29.924v23.724c0,15.44,13.656,26.352,29.088,26.352H358.6
			c7.476,0,13.892-2.12,19.18-7.44c5.344-5.308,7.656-11.528,7.656-19.004V99.188C385.436,83.756,372.944,70.436,357.508,70.436z"/>
	</g>
</g>
<g>
</g>
<g>
</g>
<g>
</g>
<g>
</g>
<g>
</g>
<g>
</g>
<g>
</g>
<g>
</g>
<g>
</g>
<g>
</g>
<g>
</g>
<g>
</g>
<g>
</g>
<g>
</g>
<g>
</g>
</svg>
